<svg xmlns="http://www.w3.org/2000/svg" version="1.1" xmlns:xlink="http://www.w3.org/1999/xlink" xmlns:svgjs="http://svgjs.dev/svgjs" width="1440" height="560" preserveAspectRatio="none" viewBox="0 0 1440 560"><g mask="url(&quot;#SvgjsMask1416&quot;)" fill="none"><rect width="1440" height="560" x="0" y="0" fill="rgba(24, 30, 45, 1)"></rect><g mask="url(&quot;#SvgjsMask1417&quot;)"><path d="M125 175L175 225L225 225L275 225M25 225L75 275L125 275L175 275M-25 275L25 225L75 225L125 175L175 175L225 175L275 175" stroke="rgba(47, 55, 70, 1)" stroke-width="8.33"></path><path d="M262.5 175 a12.5 12.5 0 1 0 25 0 a12.5 12.5 0 1 0 -25 0zM262.5 225 a12.5 12.5 0 1 0 25 0 a12.5 12.5 0 1 0 -25 0zM162.5 275 a12.5 12.5 0 1 0 25 0 a12.5 12.5 0 1 0 -25 0z" fill="rgba(47, 55, 70, 1)"></path><path d="M125 375L175 325L225 325L275 325M25 325L75 325L125 325M275 375L325 425L375 425M-25 325L25 325L75 375L125 375L175 375L225 375L275 375L325 375" stroke="rgba(47, 55, 70, 1)" stroke-width="8.33"></path><path d="M312.5 375 a12.5 12.5 0 1 0 25 0 a12.5 12.5 0 1 0 -25 0zM262.5 325 a12.5 12.5 0 1 0 25 0 a12.5 12.5 0 1 0 -25 0zM112.5 325 a12.5 12.5 0 1 0 25 0 a12.5 12.5 0 1 0 -25 0zM362.5 425 a12.5 12.5 0 1 0 25 0 a12.5 12.5 0 1 0 -25 0z" fill="rgba(47, 55, 70, 1)"></path><path d="M-25 225L25 175L75 175" stroke="rgba(47, 55, 70, 1)" stroke-width="8.33"></path><path d="M62.5 175 a12.5 12.5 0 1 0 25 0 a12.5 12.5 0 1 0 -25 0z" fill="rgba(47, 55, 70, 1)"></path><path d="M175 425L225 475L275 475L325 475M125 425L175 475M-25 375L25 375L75 425L125 425L175 425L225 425" stroke="rgba(47, 55, 70, 1)" stroke-width="8.33"></path><path d="M212.5 425 a12.5 12.5 0 1 0 25 0 a12.5 12.5 0 1 0 -25 0zM312.5 475 a12.5 12.5 0 1 0 25 0 a12.5 12.5 0 1 0 -25 0zM162.5 475 a12.5 12.5 0 1 0 25 0 a12.5 12.5 0 1 0 -25 0z" fill="rgba(47, 55, 70, 1)"></path><path d="M275 125L325 125M-25 175L25 125L75 125L125 125L175 125L225 125L275 125L325 175L375 175" stroke="rgba(47, 55, 70, 1)" stroke-width="8.33"></path><path d="M362.5 175 a12.5 12.5 0 1 0 25 0 a12.5 12.5 0 1 0 -25 0zM312.5 125 a12.5 12.5 0 1 0 25 0 a12.5 12.5 0 1 0 -25 0z" fill="rgba(47, 55, 70, 1)"></path></g></g><defs><mask id="SvgjsMask1416"><rect width="1440" height="560" fill="#ffffff"></rect></mask><mask id="SvgjsMask1417"><rect width="1440" height="560" fill="white"></rect><path d="M268.75 175 a6.25 6.25 0 1 0 12.5 0 a6.25 6.25 0 1 0 -12.5 0zM268.75 225 a6.25 6.25 0 1 0 12.5 0 a6.25 6.25 0 1 0 -12.5 0zM168.75 275 a6.25 6.25 0 1 0 12.5 0 a6.25 6.25 0 1 0 -12.5 0z" fill="black"></path><path d="M318.75 375 a6.25 6.25 0 1 0 12.5 0 a6.25 6.25 0 1 0 -12.5 0zM268.75 325 a6.25 6.25 0 1 0 12.5 0 a6.25 6.25 0 1 0 -12.5 0zM118.75 325 a6.25 6.25 0 1 0 12.5 0 a6.25 6.25 0 1 0 -12.5 0zM368.75 425 a6.25 6.25 0 1 0 12.5 0 a6.25 6.25 0 1 0 -12.5 0z" fill="black"></path><path d="M68.75 175 a6.25 6.25 0 1 0 12.5 0 a6.25 6.25 0 1 0 -12.5 0z" fill="black"></path><path d="M218.75 425 a6.25 6.25 0 1 0 12.5 0 a6.25 6.25 0 1 0 -12.5 0zM318.75 475 a6.25 6.25 0 1 0 12.5 0 a6.25 6.25 0 1 0 -12.5 0zM168.75 475 a6.25 6.25 0 1 0 12.5 0 a6.25 6.25 0 1 0 -12.5 0z" fill="black"></path><path d="M368.75 175 a6.25 6.25 0 1 0 12.5 0 a6.25 6.25 0 1 0 -12.5 0zM318.75 125 a6.25 6.25 0 1 0 12.5 0 a6.25 6.25 0 1 0 -12.5 0z" fill="black"></path></mask></defs></svg>