<svg xmlns="http://www.w3.org/2000/svg" version="1.1" xmlns:xlink="http://www.w3.org/1999/xlink" xmlns:svgjs="http://svgjs.dev/svgjs" width="1440" height="560" preserveAspectRatio="none" viewBox="0 0 1440 560"><g mask="url(&quot;#SvgjsMask1404&quot;)" fill="none"><rect width="1440" height="560" x="0" y="0" fill="rgba(24, 30, 45, 1)"></rect><g mask="url(&quot;#SvgjsMask1405&quot;)"><path d="M-25 275L25 275L75 275L125 275" stroke="rgba(47, 55, 70, 1)" stroke-width="8.33"></path><path d="M112.5 275 a12.5 12.5 0 1 0 25 0 a12.5 12.5 0 1 0 -25 0z" fill="rgba(47, 55, 70, 1)"></path><path d="M75 325L125 375M-25 325L25 325L75 325L125 325L175 325L225 325" stroke="rgba(47, 55, 70, 1)" stroke-width="8.33"></path><path d="M212.5 325 a12.5 12.5 0 1 0 25 0 a12.5 12.5 0 1 0 -25 0zM112.5 375 a12.5 12.5 0 1 0 25 0 a12.5 12.5 0 1 0 -25 0z" fill="rgba(47, 55, 70, 1)"></path><path d="M175 225L225 275L275 275L325 275M-25 225L25 225L75 225L125 225L175 225L225 225" stroke="rgba(47, 55, 70, 1)" stroke-width="8.33"></path><path d="M212.5 225 a12.5 12.5 0 1 0 25 0 a12.5 12.5 0 1 0 -25 0zM312.5 275 a12.5 12.5 0 1 0 25 0 a12.5 12.5 0 1 0 -25 0z" fill="rgba(47, 55, 70, 1)"></path><path d="M675 425L725 375L775 325L825 325M25 375L75 375M175 375L225 425L275 425L325 425M75 425L125 475M-25 375L25 375L75 425L125 425L175 375L225 375L275 375L325 375L375 375L425 375L475 375L525 425L575 425L625 425L675 425L725 425L775 425L825 425" stroke="rgba(47, 55, 70, 1)" stroke-width="8.33"></path><path d="M812.5 425 a12.5 12.5 0 1 0 25 0 a12.5 12.5 0 1 0 -25 0zM812.5 325 a12.5 12.5 0 1 0 25 0 a12.5 12.5 0 1 0 -25 0zM62.5 375 a12.5 12.5 0 1 0 25 0 a12.5 12.5 0 1 0 -25 0zM312.5 425 a12.5 12.5 0 1 0 25 0 a12.5 12.5 0 1 0 -25 0zM112.5 475 a12.5 12.5 0 1 0 25 0 a12.5 12.5 0 1 0 -25 0z" fill="rgba(47, 55, 70, 1)"></path><path d="M75 175L125 125L175 125M25 175L75 125M-25 175L25 175L75 175L125 175" stroke="rgba(47, 55, 70, 1)" stroke-width="8.33"></path><path d="M112.5 175 a12.5 12.5 0 1 0 25 0 a12.5 12.5 0 1 0 -25 0zM162.5 125 a12.5 12.5 0 1 0 25 0 a12.5 12.5 0 1 0 -25 0zM62.5 125 a12.5 12.5 0 1 0 25 0 a12.5 12.5 0 1 0 -25 0z" fill="rgba(47, 55, 70, 1)"></path></g></g><defs><mask id="SvgjsMask1404"><rect width="1440" height="560" fill="#ffffff"></rect></mask><mask id="SvgjsMask1405"><rect width="1440" height="560" fill="white"></rect><path d="M118.75 275 a6.25 6.25 0 1 0 12.5 0 a6.25 6.25 0 1 0 -12.5 0z" fill="black"></path><path d="M218.75 325 a6.25 6.25 0 1 0 12.5 0 a6.25 6.25 0 1 0 -12.5 0zM118.75 375 a6.25 6.25 0 1 0 12.5 0 a6.25 6.25 0 1 0 -12.5 0z" fill="black"></path><path d="M218.75 225 a6.25 6.25 0 1 0 12.5 0 a6.25 6.25 0 1 0 -12.5 0zM318.75 275 a6.25 6.25 0 1 0 12.5 0 a6.25 6.25 0 1 0 -12.5 0z" fill="black"></path><path d="M818.75 425 a6.25 6.25 0 1 0 12.5 0 a6.25 6.25 0 1 0 -12.5 0zM818.75 325 a6.25 6.25 0 1 0 12.5 0 a6.25 6.25 0 1 0 -12.5 0zM68.75 375 a6.25 6.25 0 1 0 12.5 0 a6.25 6.25 0 1 0 -12.5 0zM318.75 425 a6.25 6.25 0 1 0 12.5 0 a6.25 6.25 0 1 0 -12.5 0zM118.75 475 a6.25 6.25 0 1 0 12.5 0 a6.25 6.25 0 1 0 -12.5 0z" fill="black"></path><path d="M118.75 175 a6.25 6.25 0 1 0 12.5 0 a6.25 6.25 0 1 0 -12.5 0zM168.75 125 a6.25 6.25 0 1 0 12.5 0 a6.25 6.25 0 1 0 -12.5 0zM68.75 125 a6.25 6.25 0 1 0 12.5 0 a6.25 6.25 0 1 0 -12.5 0z" fill="black"></path></mask></defs></svg>