<svg xmlns="http://www.w3.org/2000/svg" version="1.1" xmlns:xlink="http://www.w3.org/1999/xlink" xmlns:svgjs="http://svgjs.dev/svgjs" width="1440" height="560" preserveAspectRatio="none" viewBox="0 0 1440 560"><g mask="url(&quot;#SvgjsMask1001&quot;)" fill="none"><path d="M0 68.63C13.15 30.76 15.06 16.44 48.61 0C85.06 -17.87 94.31 0 140 0C210 0 210 0 280 0C350 0 350 0 420 0C490 0 490 0 560 0C630 0 630 0 700 0C746.66 0 747.99 -6.48 793.33 0C817.99 3.52 820.03 20 840 20C849.04 20 840.73 1.52 851.35 0C910.73 -8.48 915.67 0 980 0C1050 0 1050 0 1120 0C1190 0 1190 0 1260 0C1330 0 1330 0 1400 0C1470 0 1505 -35 1540 0C1575 35 1540 70 1540 140C1540 210 1540 210 1540 280C1540 350 1540 350 1540 420C1540 490 1575 525 1540 560C1505 595 1470 560 1400 560C1330 560 1330 560 1260 560C1192.41 560 1191.65 562.02 1124.83 560C1121.65 559.9 1123.09 556.6 1120 555.76C1050.67 536.96 1043.18 552.37 980 520.73C907.62 484.49 913.79 471.09 848.89 420C843.79 415.98 845.15 410.51 840 410.51C832.47 410.51 824.12 411.07 823.53 420C819.19 485.82 862.17 523.7 830.14 560C800.4 593.7 765.07 560 700 560C630 560 630 560 560 560C505.66 560 487.09 585.34 451.32 560C417.09 535.75 450.87 460.83 420 460.83C372.58 460.83 358.83 514.6 294.74 560C288.83 564.19 287.37 560 280 560C210 560 210 560 140 560C70 560 35 595 0 560C-35 525 0 490 0 420C0 350 0 350 0 280C0 210 0 210 0 140C0 104.31 -11.16 100.76 0 68.63" stroke="rgba(46, 53, 71, 0.15)" stroke-width="2"></path><path d="M1400 111.23C1386.07 111.23 1374.39 124.46 1374.39 140C1374.39 159.85 1385.65 182 1400 182C1415.95 182 1435 159.35 1435 140C1435 123.96 1416.38 111.23 1400 111.23" stroke="rgba(46, 53, 71, 0.15)" stroke-width="2"></path><path d="M140 272.63C125.72 274.93 112 274.72 112 280C112 285.77 124.59 291.94 140 294.74C208.59 307.21 213.7 290.17 280 310.55C353.7 333.2 364.83 389.7 420 380.8C459.54 374.42 469.41 330.4 469.41 280C469.41 229.6 459.31 184.82 420 179.2C364.6 171.27 353.93 228.23 280 252.9C213.93 274.95 209.72 261.38 140 272.63" stroke="rgba(46, 53, 71, 0.15)" stroke-width="2"></path><path d="M700 235C686.98 235 670 258.71 670 280C670 297.36 686.63 312.31 700 312.31C711.47 312.31 719.69 296.82 719.69 280C719.69 258.16 711.82 235 700 235" stroke="rgba(46, 53, 71, 0.15)" stroke-width="2"></path><path d="M0 137.25C47.83 68.38 41.41 54.71 97.22 0C111.41 -13.92 118.61 0 140 0C210 0 210 0 280 0C350 0 400.47 -33.59 420 0C441.17 36.41 403.76 80.57 361.4 140C333.76 178.79 325.7 188.08 280 196.45C215 208.35 209.29 192.57 140 180.53C69.29 168.24 66.41 167 0 147.78C-3.59 146.74 0 143.89 0 140C0 138.63 -0.78 138.38 0 137.25" stroke="rgba(46, 53, 71, 0.15)" stroke-width="2"></path><path d="M465.82 140C437.3 72.35 395.86 35.89 420 0C442.95 -34.11 490 0 560 0C598.62 0 616.45 -24.16 637.24 0C676.68 45.84 692.23 74.89 680.47 140C666.94 214.89 634.62 210.76 586.67 280C574.39 297.73 572.56 313.94 560 313.94C548.24 313.94 547.66 297.76 538.04 280C500.57 210.79 496.32 212.35 465.82 140" stroke="rgba(46, 53, 71, 0.15)" stroke-width="2"></path><path d="M749.41 140C762.77 104.02 806.32 134.92 840 103.33C880.94 64.92 857.1 30.67 898.65 0C927.1 -21 939.33 0 980 0C1050 0 1050 0 1120 0C1190 0 1190 0 1260 0C1330 0 1330 0 1400 0C1470 0 1470 0 1540 0C1540 0 1540 0 1540 0C1540 70 1540 70 1540 140C1540 206.66 1551.33 273.33 1540 273.33C1528 273.33 1531.06 196.61 1493.33 140C1461.06 91.59 1443.68 63.29 1400 63.29C1362.87 63.29 1331.71 98.57 1331.71 140C1331.71 192.92 1350.95 216.88 1400 252C1448.73 286.88 1463.84 265.27 1527.27 280C1533.84 281.53 1539.42 278.17 1540 284.52C1545.79 348.17 1540 352.26 1540 420C1540 490 1575 525 1540 560C1505 595 1470 560 1400 560C1330 560 1330 560 1260 560C1252.76 560 1251.1 564.4 1245.52 560C1181.1 509.25 1191.57 471.79 1120 449.7C1058.81 430.82 1044.65 486.96 980 478.05C936.87 472.11 939.63 451.88 904.44 420C869.63 388.45 872.08 385.72 840 351.19C807.05 315.72 792.73 322.77 774.38 280C747.43 217.18 729.96 192.36 749.41 140" stroke="rgba(46, 53, 71, 0.15)" stroke-width="2"></path><path d="M980 92.62C930.36 98.58 894.9 101.47 886.67 140C874.9 195.16 905.73 215.18 940 280C952.39 303.44 960.7 316.52 980 316.52C997.85 316.52 996.72 297.85 1014.29 280C1066.72 226.73 1067.77 227.74 1120 174.29C1136.18 157.74 1151.11 156.36 1151.11 140C1151.11 125.21 1139.55 117.41 1120 112C1053.99 93.72 1047.03 84.58 980 92.62" stroke="rgba(46, 53, 71, 0.15)" stroke-width="2"></path><path d="M0 323.27C35.23 323.27 61.08 368.66 115.65 420C131.08 434.52 125.35 455 140 455C159.07 455 159.2 433.79 183.08 420C229.2 393.38 233.12 374.18 280 374.18C316.58 374.18 350 394.62 350 420C350 448.26 312.69 448.42 280 481.46C243.43 518.42 253.01 536.71 211.49 560C183.01 575.98 175.75 560 140 560C87.5 560 84.78 568.66 35 560C14.78 556.48 4.71 554.51 0 535.65C-12.79 484.51 0 477.83 0 420C0 371.63 -22.6 323.27 0 323.27" stroke="rgba(46, 53, 71, 0.15)" stroke-width="2"></path><path d="M676.67 420C689.52 412.91 688.61 402.05 700 402.05C710.57 402.05 714.45 408 720.59 420C754.87 486.97 787.58 514.26 780.85 560C777.28 584.26 740.42 560 700 560C630 560 630 560 560 560C528.68 560 497.37 575.33 497.37 560C497.37 534.99 520.71 510 560 479.32C610.36 440 619.52 451.54 676.67 420" stroke="rgba(46, 53, 71, 0.15)" stroke-width="2"></path><path d="M280 140C242.95 140 178.18 44.08 178.18 0C178.18 -25.92 229.09 0 280 0C296.97 0 313.94 -13.35 313.94 0C313.94 56.65 310.83 140 280 140" stroke="rgba(46, 53, 71, 0.15)" stroke-width="2"></path><path d="M529.45 140C529.45 100.92 542.93 60 560 60C577.74 60 599.07 101.36 599.07 140C599.07 170.33 577.97 197.93 560 197.93C543.16 197.93 529.45 169.89 529.45 140" stroke="rgba(46, 53, 71, 0.15)" stroke-width="2"></path><path d="M980 38.77C956.66 31.57 945.95 11.68 945.95 0C945.95 -7.71 962.97 0 980 0C1050 0 1050 0 1120 0C1190 0 1190 0 1260 0C1260 0 1260 0 1260 0C1274.51 70 1272.86 70.38 1289.02 140C1305.36 210.38 1323.5 209.67 1325 280C1326.49 349.67 1319.58 355.7 1295 420C1287.08 440.7 1277.5 450 1260 450C1242.5 450 1242.87 434.55 1225 420C1172.87 377.55 1166.79 383.03 1120 336C1097.15 313.03 1085.71 305.97 1085.71 280C1085.71 260.82 1103.49 263.46 1120 245.71C1168.6 193.46 1215.93 190.43 1215.93 140C1215.93 94.41 1176.42 77.88 1120 53.67C1058.45 27.26 1043.68 58.41 980 38.77" stroke="rgba(46, 53, 71, 0.15)" stroke-width="2"></path><path d="M1400 15.34C1331.22 15.34 1260 3.85 1260 0C1260 -3.82 1330 0 1400 0C1416.97 0 1433.94 -3.66 1433.94 0C1433.94 4.01 1418.19 15.34 1400 15.34" stroke="rgba(46, 53, 71, 0.15)" stroke-width="2"></path><path d="M829.06 280C829.06 262.85 833.27 243.16 840 243.16C847.08 243.16 856.67 263.83 856.67 280C856.67 288.18 847.72 291.86 840 291.86C833.91 291.86 829.06 287.2 829.06 280" stroke="rgba(46, 53, 71, 0.15)" stroke-width="2"></path><path d="M0 386.91C12.05 386.91 39.57 402.57 39.57 420C39.57 438.9 11.59 459.57 0 459.57C-8.2 459.57 0 439.78 0 420C0 403.46 -7.73 386.91 0 386.91" stroke="rgba(46, 53, 71, 0.15)" stroke-width="2"></path><path d="M960 420C960 407.74 967.16 392.61 980 392.61C1000.49 392.61 1026.67 408.79 1026.67 420C1026.67 430.17 1002.03 435.37 980 435.37C968.69 435.37 960 429.12 960 420" stroke="rgba(46, 53, 71, 0.15)" stroke-width="2"></path><path d="M1509.57 420C1509.57 407.42 1530.47 397.42 1540 397.42C1545.68 397.42 1540 408.71 1540 420C1540 435.91 1546.38 451.82 1540 451.82C1531.17 451.82 1509.57 434.62 1509.57 420" stroke="rgba(46, 53, 71, 0.15)" stroke-width="2"></path><path d="M543.42 560C543.42 553.38 547.75 543.51 560 538.64C626.04 512.4 641.98 490.56 700 497.78C727.75 501.24 731.55 538.58 731.55 560C731.55 569.69 715.78 560 700 560C630 560 630 560 560 560C551.71 560 543.42 564.06 543.42 560" stroke="rgba(46, 53, 71, 0.15)" stroke-width="2"></path><path d="M1393.91 560C1393.91 557.75 1396.73 552.63 1400 552.63C1403.67 552.63 1407.78 557.86 1407.78 560C1407.78 561.55 1403.89 560 1400 560C1396.95 560 1393.91 561.43 1393.91 560" stroke="rgba(46, 53, 71, 0.15)" stroke-width="2"></path></g><defs><mask id="SvgjsMask1001"><rect width="1440" height="560" fill="#ffffff"></rect></mask></defs></svg>