<svg xmlns="http://www.w3.org/2000/svg" version="1.1" xmlns:xlink="http://www.w3.org/1999/xlink" xmlns:svgjs="http://svgjs.dev/svgjs" width="1440" height="560" preserveAspectRatio="none" viewBox="0 0 1440 560"><g mask="url(&quot;#SvgjsMask1001&quot;)" fill="none"><path d="M19.86 70.21L40.65 82.21L40.65 106.21L19.86 118.21L-0.93 106.21L-0.93 82.21zM40.65 106.21L61.43 118.21L61.43 142.21L40.65 154.21L19.86 142.21L19.86 118.21zM19.86 142.21L40.65 154.21L40.65 178.21L19.86 190.21L-0.93 178.21L-0.93 154.21zM40.65 178.21L61.43 190.21L61.43 214.21L40.65 226.21L19.86 214.21L19.86 190.21zM40.65 322.21L61.43 334.21L61.43 358.21L40.65 370.21L19.86 358.21L19.86 334.21zM40.65 466.21L61.43 478.21L61.43 502.21L40.65 514.21L19.86 502.21L19.86 478.21zM82.22 34.21L103 46.21L103 70.21L82.22 82.21L61.43 70.21L61.43 46.21zM61.43 214.21L82.22 226.21L82.22 250.21L61.43 262.21L40.65 250.21L40.65 226.21zM82.22 250.21L103 262.21L103 286.21L82.22 298.21L61.43 286.21L61.43 262.21zM61.43 286.21L82.22 298.21L82.22 322.21L61.43 334.21L40.65 322.21L40.65 298.21zM82.22 322.21L103 334.21L103 358.21L82.22 370.21L61.43 358.21L61.43 334.21zM82.22 394.21L103 406.21L103 430.21L82.22 442.21L61.43 430.21L61.43 406.21zM82.22 466.21L103 478.21L103 502.21L82.22 514.21L61.43 502.21L61.43 478.21zM61.43 574.21L82.22 586.21L82.22 610.21L61.43 622.21L40.65 610.21L40.65 586.21zM103 -1.79L123.79 10.21L123.79 34.21L103 46.21L82.22 34.21L82.22 10.21zM103 70.21L123.79 82.21L123.79 106.21L103 118.21L82.22 106.21L82.22 82.21zM123.79 178.21L144.57 190.21L144.57 214.21L123.79 226.21L103 214.21L103 190.21zM123.79 394.21L144.57 406.21L144.57 430.21L123.79 442.21L103 430.21L103 406.21zM103 430.21L123.79 442.21L123.79 466.21L103 478.21L82.22 466.21L82.22 442.21zM123.79 466.21L144.57 478.21L144.57 502.21L123.79 514.21L103 502.21L103 478.21zM103 502.21L123.79 514.21L123.79 538.21L103 550.21L82.22 538.21L82.22 514.21zM123.79 538.21L144.57 550.21L144.57 574.21L123.79 586.21L103 574.21L103 550.21zM144.57 70.21L165.36 82.21L165.36 106.21L144.57 118.21L123.79 106.21L123.79 82.21zM165.36 106.21L186.14 118.21L186.14 142.21L165.36 154.21L144.57 142.21L144.57 118.21zM144.57 142.21L165.36 154.21L165.36 178.21L144.57 190.21L123.79 178.21L123.79 154.21zM144.57 214.21L165.36 226.21L165.36 250.21L144.57 262.21L123.79 250.21L123.79 226.21zM144.57 286.21L165.36 298.21L165.36 322.21L144.57 334.21L123.79 322.21L123.79 298.21zM144.57 430.21L165.36 442.21L165.36 466.21L144.57 478.21L123.79 466.21L123.79 442.21zM144.57 502.21L165.36 514.21L165.36 538.21L144.57 550.21L123.79 538.21L123.79 514.21zM186.14 -1.79L206.93 10.21L206.93 34.21L186.14 46.21L165.36 34.21L165.36 10.21zM206.93 34.21L227.71 46.21L227.71 70.21L206.93 82.21L186.14 70.21L186.14 46.21zM186.14 70.21L206.93 82.21L206.93 106.21L186.14 118.21L165.36 106.21L165.36 82.21zM206.93 106.21L227.71 118.21L227.71 142.21L206.93 154.21L186.14 142.21L186.14 118.21zM186.14 142.21L206.93 154.21L206.93 178.21L186.14 190.21L165.36 178.21L165.36 154.21zM186.14 214.21L206.93 226.21L206.93 250.21L186.14 262.21L165.36 250.21L165.36 226.21zM186.14 286.21L206.93 298.21L206.93 322.21L186.14 334.21L165.36 322.21L165.36 298.21zM206.93 394.21L227.71 406.21L227.71 430.21L206.93 442.21L186.14 430.21L186.14 406.21zM186.14 430.21L206.93 442.21L206.93 466.21L186.14 478.21L165.36 466.21L165.36 442.21zM186.14 502.21L206.93 514.21L206.93 538.21L186.14 550.21L165.36 538.21L165.36 514.21zM206.93 538.21L227.71 550.21L227.71 574.21L206.93 586.21L186.14 574.21L186.14 550.21zM227.71 -1.79L248.5 10.21L248.5 34.21L227.71 46.21L206.93 34.21L206.93 10.21zM248.5 34.21L269.28 46.21L269.28 70.21L248.5 82.21L227.71 70.21L227.71 46.21zM248.5 106.21L269.28 118.21L269.28 142.21L248.5 154.21L227.71 142.21L227.71 118.21zM227.71 142.21L248.5 154.21L248.5 178.21L227.71 190.21L206.93 178.21L206.93 154.21zM248.5 178.21L269.28 190.21L269.28 214.21L248.5 226.21L227.71 214.21L227.71 190.21zM227.71 214.21L248.5 226.21L248.5 250.21L227.71 262.21L206.93 250.21L206.93 226.21zM248.5 250.21L269.28 262.21L269.28 286.21L248.5 298.21L227.71 286.21L227.71 262.21zM227.71 358.21L248.5 370.21L248.5 394.21L227.71 406.21L206.93 394.21L206.93 370.21zM227.71 502.21L248.5 514.21L248.5 538.21L227.71 550.21L206.93 538.21L206.93 514.21zM227.71 574.21L248.5 586.21L248.5 610.21L227.71 622.21L206.93 610.21L206.93 586.21zM290.07 34.21L310.85 46.21L310.85 70.21L290.07 82.21L269.28 70.21L269.28 46.21zM269.28 142.21L290.07 154.21L290.07 178.21L269.28 190.21L248.5 178.21L248.5 154.21zM290.07 250.21L310.85 262.21L310.85 286.21L290.07 298.21L269.28 286.21L269.28 262.21zM290.07 322.21L310.85 334.21L310.85 358.21L290.07 370.21L269.28 358.21L269.28 334.21zM269.28 358.21L290.07 370.21L290.07 394.21L269.28 406.21L248.5 394.21L248.5 370.21zM269.28 502.21L290.07 514.21L290.07 538.21L269.28 550.21L248.5 538.21L248.5 514.21zM269.28 574.21L290.07 586.21L290.07 610.21L269.28 622.21L248.5 610.21L248.5 586.21zM331.64 34.21L352.42 46.21L352.42 70.21L331.64 82.21L310.85 70.21L310.85 46.21zM331.64 106.21L352.42 118.21L352.42 142.21L331.64 154.21L310.85 142.21L310.85 118.21zM310.85 142.21L331.64 154.21L331.64 178.21L310.85 190.21L290.07 178.21L290.07 154.21zM331.64 178.21L352.42 190.21L352.42 214.21L331.64 226.21L310.85 214.21L310.85 190.21zM310.85 214.21L331.64 226.21L331.64 250.21L310.85 262.21L290.07 250.21L290.07 226.21zM310.85 286.21L331.64 298.21L331.64 322.21L310.85 334.21L290.07 322.21L290.07 298.21zM331.64 322.21L352.42 334.21L352.42 358.21L331.64 370.21L310.85 358.21L310.85 334.21zM310.85 358.21L331.64 370.21L331.64 394.21L310.85 406.21L290.07 394.21L290.07 370.21zM310.85 430.21L331.64 442.21L331.64 466.21L310.85 478.21L290.07 466.21L290.07 442.21zM310.85 502.21L331.64 514.21L331.64 538.21L310.85 550.21L290.07 538.21L290.07 514.21zM331.64 538.21L352.42 550.21L352.42 574.21L331.64 586.21L310.85 574.21L310.85 550.21zM352.42 -1.79L373.21 10.21L373.21 34.21L352.42 46.21L331.64 34.21L331.64 10.21zM352.42 70.21L373.21 82.21L373.21 106.21L352.42 118.21L331.64 106.21L331.64 82.21zM373.21 106.21L393.99 118.21L393.99 142.21L373.21 154.21L352.42 142.21L352.42 118.21zM352.42 214.21L373.21 226.21L373.21 250.21L352.42 262.21L331.64 250.21L331.64 226.21zM373.21 394.21L393.99 406.21L393.99 430.21L373.21 442.21L352.42 430.21L352.42 406.21zM373.21 466.21L393.99 478.21L393.99 502.21L373.21 514.21L352.42 502.21L352.42 478.21zM352.42 502.21L373.21 514.21L373.21 538.21L352.42 550.21L331.64 538.21L331.64 514.21zM352.42 574.21L373.21 586.21L373.21 610.21L352.42 622.21L331.64 610.21L331.64 586.21zM393.99 142.21L414.78 154.21L414.78 178.21L393.99 190.21L373.21 178.21L373.21 154.21zM414.78 178.21L435.56 190.21L435.56 214.21L414.78 226.21L393.99 214.21L393.99 190.21zM414.78 250.21L435.56 262.21L435.56 286.21L414.78 298.21L393.99 286.21L393.99 262.21zM393.99 286.21L414.78 298.21L414.78 322.21L393.99 334.21L373.21 322.21L373.21 298.21zM414.78 322.21L435.56 334.21L435.56 358.21L414.78 370.21L393.99 358.21L393.99 334.21zM393.99 358.21L414.78 370.21L414.78 394.21L393.99 406.21L373.21 394.21L373.21 370.21zM414.78 538.21L435.56 550.21L435.56 574.21L414.78 586.21L393.99 574.21L393.99 550.21zM435.56 -1.79L456.35 10.21L456.35 34.21L435.56 46.21L414.78 34.21L414.78 10.21zM456.35 178.21L477.13 190.21L477.13 214.21L456.35 226.21L435.56 214.21L435.56 190.21zM435.56 214.21L456.35 226.21L456.35 250.21L435.56 262.21L414.78 250.21L414.78 226.21zM456.35 250.21L477.13 262.21L477.13 286.21L456.35 298.21L435.56 286.21L435.56 262.21zM456.35 322.21L477.13 334.21L477.13 358.21L456.35 370.21L435.56 358.21L435.56 334.21zM435.56 358.21L456.35 370.21L456.35 394.21L435.56 406.21L414.78 394.21L414.78 370.21zM456.35 394.21L477.13 406.21L477.13 430.21L456.35 442.21L435.56 430.21L435.56 406.21zM435.56 430.21L456.35 442.21L456.35 466.21L435.56 478.21L414.78 466.21L414.78 442.21zM456.35 466.21L477.13 478.21L477.13 502.21L456.35 514.21L435.56 502.21L435.56 478.21zM435.56 502.21L456.35 514.21L456.35 538.21L435.56 550.21L414.78 538.21L414.78 514.21zM497.92 34.21L518.7 46.21L518.7 70.21L497.92 82.21L477.13 70.21L477.13 46.21zM477.13 142.21L497.92 154.21L497.92 178.21L477.13 190.21L456.35 178.21L456.35 154.21zM497.92 178.21L518.7 190.21L518.7 214.21L497.92 226.21L477.13 214.21L477.13 190.21zM477.13 214.21L497.92 226.21L497.92 250.21L477.13 262.21L456.35 250.21L456.35 226.21zM477.13 358.21L497.92 370.21L497.92 394.21L477.13 406.21L456.35 394.21L456.35 370.21zM497.92 394.21L518.7 406.21L518.7 430.21L497.92 442.21L477.13 430.21L477.13 406.21zM497.92 466.21L518.7 478.21L518.7 502.21L497.92 514.21L477.13 502.21L477.13 478.21zM477.13 574.21L497.92 586.21L497.92 610.21L477.13 622.21L456.35 610.21L456.35 586.21zM539.49 34.21L560.28 46.21L560.28 70.21L539.49 82.21L518.7 70.21L518.7 46.21zM518.7 70.21L539.49 82.21L539.49 106.21L518.7 118.21L497.92 106.21L497.92 82.21zM518.7 142.21L539.49 154.21L539.49 178.21L518.7 190.21L497.92 178.21L497.92 154.21zM518.7 286.21L539.49 298.21L539.49 322.21L518.7 334.21L497.92 322.21L497.92 298.21zM539.49 538.21L560.28 550.21L560.28 574.21L539.49 586.21L518.7 574.21L518.7 550.21zM518.7 574.21L539.49 586.21L539.49 610.21L518.7 622.21L497.92 610.21L497.92 586.21zM581.06 34.21L601.85 46.21L601.85 70.21L581.06 82.21L560.28 70.21L560.28 46.21zM560.28 142.21L581.06 154.21L581.06 178.21L560.28 190.21L539.49 178.21L539.49 154.21zM581.06 178.21L601.85 190.21L601.85 214.21L581.06 226.21L560.28 214.21L560.28 190.21zM560.28 214.21L581.06 226.21L581.06 250.21L560.28 262.21L539.49 250.21L539.49 226.21zM581.06 250.21L601.85 262.21L601.85 286.21L581.06 298.21L560.28 286.21L560.28 262.21zM560.28 358.21L581.06 370.21L581.06 394.21L560.28 406.21L539.49 394.21L539.49 370.21zM581.06 394.21L601.85 406.21L601.85 430.21L581.06 442.21L560.28 430.21L560.28 406.21zM560.28 502.21L581.06 514.21L581.06 538.21L560.28 550.21L539.49 538.21L539.49 514.21zM581.06 538.21L601.85 550.21L601.85 574.21L581.06 586.21L560.28 574.21L560.28 550.21zM601.85 -1.79L622.63 10.21L622.63 34.21L601.85 46.21L581.06 34.21L581.06 10.21zM622.63 34.21L643.42 46.21L643.42 70.21L622.63 82.21L601.85 70.21L601.85 46.21zM601.85 70.21L622.63 82.21L622.63 106.21L601.85 118.21L581.06 106.21L581.06 82.21zM601.85 142.21L622.63 154.21L622.63 178.21L601.85 190.21L581.06 178.21L581.06 154.21zM622.63 178.21L643.42 190.21L643.42 214.21L622.63 226.21L601.85 214.21L601.85 190.21zM622.63 250.21L643.42 262.21L643.42 286.21L622.63 298.21L601.85 286.21L601.85 262.21zM601.85 286.21L622.63 298.21L622.63 322.21L601.85 334.21L581.06 322.21L581.06 298.21zM622.63 466.21L643.42 478.21L643.42 502.21L622.63 514.21L601.85 502.21L601.85 478.21zM622.63 538.21L643.42 550.21L643.42 574.21L622.63 586.21L601.85 574.21L601.85 550.21zM601.85 574.21L622.63 586.21L622.63 610.21L601.85 622.21L581.06 610.21L581.06 586.21zM643.42 -1.79L664.2 10.21L664.2 34.21L643.42 46.21L622.63 34.21L622.63 10.21zM643.42 70.21L664.2 82.21L664.2 106.21L643.42 118.21L622.63 106.21L622.63 82.21zM664.2 106.21L684.99 118.21L684.99 142.21L664.2 154.21L643.42 142.21L643.42 118.21zM664.2 322.21L684.99 334.21L684.99 358.21L664.2 370.21L643.42 358.21L643.42 334.21zM643.42 358.21L664.2 370.21L664.2 394.21L643.42 406.21L622.63 394.21L622.63 370.21zM664.2 394.21L684.99 406.21L684.99 430.21L664.2 442.21L643.42 430.21L643.42 406.21zM643.42 502.21L664.2 514.21L664.2 538.21L643.42 550.21L622.63 538.21L622.63 514.21zM643.42 574.21L664.2 586.21L664.2 610.21L643.42 622.21L622.63 610.21L622.63 586.21zM684.99 70.21L705.77 82.21L705.77 106.21L684.99 118.21L664.2 106.21L664.2 82.21zM705.77 250.21L726.56 262.21L726.56 286.21L705.77 298.21L684.99 286.21L684.99 262.21zM684.99 286.21L705.77 298.21L705.77 322.21L684.99 334.21L664.2 322.21L664.2 298.21zM705.77 394.21L726.56 406.21L726.56 430.21L705.77 442.21L684.99 430.21L684.99 406.21zM684.99 502.21L705.77 514.21L705.77 538.21L684.99 550.21L664.2 538.21L664.2 514.21zM684.99 574.21L705.77 586.21L705.77 610.21L684.99 622.21L664.2 610.21L664.2 586.21zM726.56 142.21L747.34 154.21L747.34 178.21L726.56 190.21L705.77 178.21L705.77 154.21zM726.56 214.21L747.34 226.21L747.34 250.21L726.56 262.21L705.77 250.21L705.77 226.21zM747.34 250.21L768.13 262.21L768.13 286.21L747.34 298.21L726.56 286.21L726.56 262.21zM747.34 538.21L768.13 550.21L768.13 574.21L747.34 586.21L726.56 574.21L726.56 550.21zM788.91 178.21L809.7 190.21L809.7 214.21L788.91 226.21L768.13 214.21L768.13 190.21zM768.13 358.21L788.91 370.21L788.91 394.21L768.13 406.21L747.34 394.21L747.34 370.21zM788.91 466.21L809.7 478.21L809.7 502.21L788.91 514.21L768.13 502.21L768.13 478.21zM768.13 574.21L788.91 586.21L788.91 610.21L768.13 622.21L747.34 610.21L747.34 586.21zM830.48 106.21L851.27 118.21L851.27 142.21L830.48 154.21L809.7 142.21L809.7 118.21zM809.7 142.21L830.48 154.21L830.48 178.21L809.7 190.21L788.91 178.21L788.91 154.21zM830.48 178.21L851.27 190.21L851.27 214.21L830.48 226.21L809.7 214.21L809.7 190.21zM830.48 250.21L851.27 262.21L851.27 286.21L830.48 298.21L809.7 286.21L809.7 262.21zM809.7 286.21L830.48 298.21L830.48 322.21L809.7 334.21L788.91 322.21L788.91 298.21zM830.48 322.21L851.27 334.21L851.27 358.21L830.48 370.21L809.7 358.21L809.7 334.21zM830.48 394.21L851.27 406.21L851.27 430.21L830.48 442.21L809.7 430.21L809.7 406.21zM809.7 430.21L830.48 442.21L830.48 466.21L809.7 478.21L788.91 466.21L788.91 442.21zM809.7 502.21L830.48 514.21L830.48 538.21L809.7 550.21L788.91 538.21L788.91 514.21zM809.7 574.21L830.48 586.21L830.48 610.21L809.7 622.21L788.91 610.21L788.91 586.21zM851.27 -1.79L872.05 10.21L872.05 34.21L851.27 46.21L830.48 34.21L830.48 10.21zM872.05 34.21L892.84 46.21L892.84 70.21L872.05 82.21L851.27 70.21L851.27 46.21zM851.27 70.21L872.05 82.21L872.05 106.21L851.27 118.21L830.48 106.21L830.48 82.21zM851.27 142.21L872.05 154.21L872.05 178.21L851.27 190.21L830.48 178.21L830.48 154.21zM872.05 178.21L892.84 190.21L892.84 214.21L872.05 226.21L851.27 214.21L851.27 190.21zM872.05 250.21L892.84 262.21L892.84 286.21L872.05 298.21L851.27 286.21L851.27 262.21zM872.05 394.21L892.84 406.21L892.84 430.21L872.05 442.21L851.27 430.21L851.27 406.21zM872.05 538.21L892.84 550.21L892.84 574.21L872.05 586.21L851.27 574.21L851.27 550.21zM913.62 34.21L934.41 46.21L934.41 70.21L913.62 82.21L892.84 70.21L892.84 46.21zM892.84 70.21L913.62 82.21L913.62 106.21L892.84 118.21L872.05 106.21L872.05 82.21zM913.62 106.21L934.41 118.21L934.41 142.21L913.62 154.21L892.84 142.21L892.84 118.21zM892.84 214.21L913.62 226.21L913.62 250.21L892.84 262.21L872.05 250.21L872.05 226.21zM913.62 322.21L934.41 334.21L934.41 358.21L913.62 370.21L892.84 358.21L892.84 334.21zM913.62 394.21L934.41 406.21L934.41 430.21L913.62 442.21L892.84 430.21L892.84 406.21zM892.84 502.21L913.62 514.21L913.62 538.21L892.84 550.21L872.05 538.21L872.05 514.21zM892.84 574.21L913.62 586.21L913.62 610.21L892.84 622.21L872.05 610.21L872.05 586.21zM934.41 142.21L955.19 154.21L955.19 178.21L934.41 190.21L913.62 178.21L913.62 154.21zM934.41 214.21L955.19 226.21L955.19 250.21L934.41 262.21L913.62 250.21L913.62 226.21zM955.19 250.21L975.98 262.21L975.98 286.21L955.19 298.21L934.41 286.21L934.41 262.21zM955.19 322.21L975.98 334.21L975.98 358.21L955.19 370.21L934.41 358.21L934.41 334.21zM955.19 466.21L975.98 478.21L975.98 502.21L955.19 514.21L934.41 502.21L934.41 478.21zM934.41 502.21L955.19 514.21L955.19 538.21L934.41 550.21L913.62 538.21L913.62 514.21zM975.98 -1.79L996.76 10.21L996.76 34.21L975.98 46.21L955.19 34.21L955.19 10.21zM996.76 178.21L1017.55 190.21L1017.55 214.21L996.76 226.21L975.98 214.21L975.98 190.21zM975.98 214.21L996.76 226.21L996.76 250.21L975.98 262.21L955.19 250.21L955.19 226.21zM996.76 250.21L1017.55 262.21L1017.55 286.21L996.76 298.21L975.98 286.21L975.98 262.21zM996.76 322.21L1017.55 334.21L1017.55 358.21L996.76 370.21L975.98 358.21L975.98 334.21zM975.98 358.21L996.76 370.21L996.76 394.21L975.98 406.21L955.19 394.21L955.19 370.21zM996.76 394.21L1017.55 406.21L1017.55 430.21L996.76 442.21L975.98 430.21L975.98 406.21zM975.98 430.21L996.76 442.21L996.76 466.21L975.98 478.21L955.19 466.21L955.19 442.21zM1017.55 -1.79L1038.33 10.21L1038.33 34.21L1017.55 46.21L996.76 34.21L996.76 10.21zM1038.33 34.21L1059.12 46.21L1059.12 70.21L1038.33 82.21L1017.55 70.21L1017.55 46.21zM1017.55 70.21L1038.33 82.21L1038.33 106.21L1017.55 118.21L996.76 106.21L996.76 82.21zM1038.33 106.21L1059.12 118.21L1059.12 142.21L1038.33 154.21L1017.55 142.21L1017.55 118.21zM1038.33 178.21L1059.12 190.21L1059.12 214.21L1038.33 226.21L1017.55 214.21L1017.55 190.21zM1017.55 214.21L1038.33 226.21L1038.33 250.21L1017.55 262.21L996.76 250.21L996.76 226.21zM1038.33 250.21L1059.12 262.21L1059.12 286.21L1038.33 298.21L1017.55 286.21L1017.55 262.21zM1038.33 394.21L1059.12 406.21L1059.12 430.21L1038.33 442.21L1017.55 430.21L1017.55 406.21zM1017.55 430.21L1038.33 442.21L1038.33 466.21L1017.55 478.21L996.76 466.21L996.76 442.21zM1038.33 466.21L1059.12 478.21L1059.12 502.21L1038.33 514.21L1017.55 502.21L1017.55 478.21zM1017.55 502.21L1038.33 514.21L1038.33 538.21L1017.55 550.21L996.76 538.21L996.76 514.21zM1079.91 34.21L1100.69 46.21L1100.69 70.21L1079.91 82.21L1059.12 70.21L1059.12 46.21zM1059.12 70.21L1079.91 82.21L1079.91 106.21L1059.12 118.21L1038.33 106.21L1038.33 82.21zM1079.91 178.21L1100.69 190.21L1100.69 214.21L1079.91 226.21L1059.12 214.21L1059.12 190.21zM1059.12 214.21L1079.91 226.21L1079.91 250.21L1059.12 262.21L1038.33 250.21L1038.33 226.21zM1079.91 250.21L1100.69 262.21L1100.69 286.21L1079.91 298.21L1059.12 286.21L1059.12 262.21zM1059.12 286.21L1079.91 298.21L1079.91 322.21L1059.12 334.21L1038.33 322.21L1038.33 298.21zM1059.12 358.21L1079.91 370.21L1079.91 394.21L1059.12 406.21L1038.33 394.21L1038.33 370.21zM1059.12 430.21L1079.91 442.21L1079.91 466.21L1059.12 478.21L1038.33 466.21L1038.33 442.21zM1059.12 574.21L1079.91 586.21L1079.91 610.21L1059.12 622.21L1038.33 610.21L1038.33 586.21zM1100.69 -1.79L1121.48 10.21L1121.48 34.21L1100.69 46.21L1079.91 34.21L1079.91 10.21zM1100.69 70.21L1121.48 82.21L1121.48 106.21L1100.69 118.21L1079.91 106.21L1079.91 82.21zM1100.69 214.21L1121.48 226.21L1121.48 250.21L1100.69 262.21L1079.91 250.21L1079.91 226.21zM1121.48 322.21L1142.26 334.21L1142.26 358.21L1121.48 370.21L1100.69 358.21L1100.69 334.21zM1121.48 394.21L1142.26 406.21L1142.26 430.21L1121.48 442.21L1100.69 430.21L1100.69 406.21zM1121.48 466.21L1142.26 478.21L1142.26 502.21L1121.48 514.21L1100.69 502.21L1100.69 478.21zM1100.69 574.21L1121.48 586.21L1121.48 610.21L1100.69 622.21L1079.91 610.21L1079.91 586.21zM1163.05 178.21L1183.83 190.21L1183.83 214.21L1163.05 226.21L1142.26 214.21L1142.26 190.21zM1142.26 214.21L1163.05 226.21L1163.05 250.21L1142.26 262.21L1121.48 250.21L1121.48 226.21zM1142.26 286.21L1163.05 298.21L1163.05 322.21L1142.26 334.21L1121.48 322.21L1121.48 298.21zM1163.05 322.21L1183.83 334.21L1183.83 358.21L1163.05 370.21L1142.26 358.21L1142.26 334.21zM1142.26 358.21L1163.05 370.21L1163.05 394.21L1142.26 406.21L1121.48 394.21L1121.48 370.21zM1163.05 394.21L1183.83 406.21L1183.83 430.21L1163.05 442.21L1142.26 430.21L1142.26 406.21zM1142.26 430.21L1163.05 442.21L1163.05 466.21L1142.26 478.21L1121.48 466.21L1121.48 442.21zM1163.05 466.21L1183.83 478.21L1183.83 502.21L1163.05 514.21L1142.26 502.21L1142.26 478.21zM1163.05 538.21L1183.83 550.21L1183.83 574.21L1163.05 586.21L1142.26 574.21L1142.26 550.21zM1204.62 106.21L1225.4 118.21L1225.4 142.21L1204.62 154.21L1183.83 142.21L1183.83 118.21zM1183.83 142.21L1204.62 154.21L1204.62 178.21L1183.83 190.21L1163.05 178.21L1163.05 154.21zM1204.62 178.21L1225.4 190.21L1225.4 214.21L1204.62 226.21L1183.83 214.21L1183.83 190.21zM1183.83 358.21L1204.62 370.21L1204.62 394.21L1183.83 406.21L1163.05 394.21L1163.05 370.21zM1204.62 466.21L1225.4 478.21L1225.4 502.21L1204.62 514.21L1183.83 502.21L1183.83 478.21zM1183.83 502.21L1204.62 514.21L1204.62 538.21L1183.83 550.21L1163.05 538.21L1163.05 514.21zM1204.62 538.21L1225.4 550.21L1225.4 574.21L1204.62 586.21L1183.83 574.21L1183.83 550.21zM1225.4 -1.79L1246.19 10.21L1246.19 34.21L1225.4 46.21L1204.62 34.21L1204.62 10.21zM1225.4 70.21L1246.19 82.21L1246.19 106.21L1225.4 118.21L1204.62 106.21L1204.62 82.21zM1225.4 214.21L1246.19 226.21L1246.19 250.21L1225.4 262.21L1204.62 250.21L1204.62 226.21zM1246.19 250.21L1266.97 262.21L1266.97 286.21L1246.19 298.21L1225.4 286.21L1225.4 262.21zM1225.4 358.21L1246.19 370.21L1246.19 394.21L1225.4 406.21L1204.62 394.21L1204.62 370.21zM1246.19 394.21L1266.97 406.21L1266.97 430.21L1246.19 442.21L1225.4 430.21L1225.4 406.21zM1225.4 430.21L1246.19 442.21L1246.19 466.21L1225.4 478.21L1204.62 466.21L1204.62 442.21zM1246.19 538.21L1266.97 550.21L1266.97 574.21L1246.19 586.21L1225.4 574.21L1225.4 550.21zM1225.4 574.21L1246.19 586.21L1246.19 610.21L1225.4 622.21L1204.62 610.21L1204.62 586.21zM1266.97 -1.79L1287.76 10.21L1287.76 34.21L1266.97 46.21L1246.19 34.21L1246.19 10.21zM1287.76 34.21L1308.54 46.21L1308.54 70.21L1287.76 82.21L1266.97 70.21L1266.97 46.21zM1266.97 70.21L1287.76 82.21L1287.76 106.21L1266.97 118.21L1246.19 106.21L1246.19 82.21zM1266.97 142.21L1287.76 154.21L1287.76 178.21L1266.97 190.21L1246.19 178.21L1246.19 154.21zM1266.97 214.21L1287.76 226.21L1287.76 250.21L1266.97 262.21L1246.19 250.21L1246.19 226.21zM1266.97 286.21L1287.76 298.21L1287.76 322.21L1266.97 334.21L1246.19 322.21L1246.19 298.21zM1287.76 394.21L1308.54 406.21L1308.54 430.21L1287.76 442.21L1266.97 430.21L1266.97 406.21zM1287.76 466.21L1308.54 478.21L1308.54 502.21L1287.76 514.21L1266.97 502.21L1266.97 478.21zM1266.97 502.21L1287.76 514.21L1287.76 538.21L1266.97 550.21L1246.19 538.21L1246.19 514.21zM1329.33 106.21L1350.11 118.21L1350.11 142.21L1329.33 154.21L1308.54 142.21L1308.54 118.21zM1308.54 358.21L1329.33 370.21L1329.33 394.21L1308.54 406.21L1287.76 394.21L1287.76 370.21zM1329.33 394.21L1350.11 406.21L1350.11 430.21L1329.33 442.21L1308.54 430.21L1308.54 406.21zM1308.54 430.21L1329.33 442.21L1329.33 466.21L1308.54 478.21L1287.76 466.21L1287.76 442.21zM1308.54 574.21L1329.33 586.21L1329.33 610.21L1308.54 622.21L1287.76 610.21L1287.76 586.21zM1350.11 -1.79L1370.9 10.21L1370.9 34.21L1350.11 46.21L1329.33 34.21L1329.33 10.21zM1370.9 34.21L1391.68 46.21L1391.68 70.21L1370.9 82.21L1350.11 70.21L1350.11 46.21zM1370.9 250.21L1391.68 262.21L1391.68 286.21L1370.9 298.21L1350.11 286.21L1350.11 262.21zM1350.11 286.21L1370.9 298.21L1370.9 322.21L1350.11 334.21L1329.33 322.21L1329.33 298.21zM1370.9 322.21L1391.68 334.21L1391.68 358.21L1370.9 370.21L1350.11 358.21L1350.11 334.21zM1370.9 394.21L1391.68 406.21L1391.68 430.21L1370.9 442.21L1350.11 430.21L1350.11 406.21zM1350.11 430.21L1370.9 442.21L1370.9 466.21L1350.11 478.21L1329.33 466.21L1329.33 442.21zM1350.11 502.21L1370.9 514.21L1370.9 538.21L1350.11 550.21L1329.33 538.21L1329.33 514.21zM1370.9 538.21L1391.68 550.21L1391.68 574.21L1370.9 586.21L1350.11 574.21L1350.11 550.21zM1391.68 -1.79L1412.47 10.21L1412.47 34.21L1391.68 46.21L1370.9 34.21L1370.9 10.21zM1412.47 106.21L1433.25 118.21L1433.25 142.21L1412.47 154.21L1391.68 142.21L1391.68 118.21zM1391.68 142.21L1412.47 154.21L1412.47 178.21L1391.68 190.21L1370.9 178.21L1370.9 154.21zM1412.47 250.21L1433.25 262.21L1433.25 286.21L1412.47 298.21L1391.68 286.21L1391.68 262.21zM1391.68 286.21L1412.47 298.21L1412.47 322.21L1391.68 334.21L1370.9 322.21L1370.9 298.21zM1391.68 358.21L1412.47 370.21L1412.47 394.21L1391.68 406.21L1370.9 394.21L1370.9 370.21zM1412.47 394.21L1433.25 406.21L1433.25 430.21L1412.47 442.21L1391.68 430.21L1391.68 406.21zM1391.68 430.21L1412.47 442.21L1412.47 466.21L1391.68 478.21L1370.9 466.21L1370.9 442.21zM1412.47 466.21L1433.25 478.21L1433.25 502.21L1412.47 514.21L1391.68 502.21L1391.68 478.21zM1391.68 574.21L1412.47 586.21L1412.47 610.21L1391.68 622.21L1370.9 610.21L1370.9 586.21zM1433.25 -1.79L1454.04 10.21L1454.04 34.21L1433.25 46.21L1412.47 34.21L1412.47 10.21zM1454.04 34.21L1474.82 46.21L1474.82 70.21L1454.04 82.21L1433.25 70.21L1433.25 46.21zM1433.25 70.21L1454.04 82.21L1454.04 106.21L1433.25 118.21L1412.47 106.21L1412.47 82.21zM1454.04 178.21L1474.82 190.21L1474.82 214.21L1454.04 226.21L1433.25 214.21L1433.25 190.21zM1433.25 286.21L1454.04 298.21L1454.04 322.21L1433.25 334.21L1412.47 322.21L1412.47 298.21zM1433.25 430.21L1454.04 442.21L1454.04 466.21L1433.25 478.21L1412.47 466.21L1412.47 442.21zM1433.25 574.21L1454.04 586.21L1454.04 610.21L1433.25 622.21L1412.47 610.21L1412.47 586.21z" stroke="rgba(46, 53, 71, 0.15)" stroke-width="2"></path></g><defs><mask id="SvgjsMask1001"><rect width="1440" height="560" fill="#ffffff"></rect></mask></defs></svg>