<svg xmlns="http://www.w3.org/2000/svg" version="1.1" xmlns:xlink="http://www.w3.org/1999/xlink" xmlns:svgjs="http://svgjs.dev/svgjs" width="1920" height="50" preserveAspectRatio="none" viewBox="0 0 1920 50"><g mask="url(&quot;#SvgjsMask1023&quot;)" fill="none"><rect width="1920" height="50" x="0" y="0" fill="rgba(24, 30, 45, 1)"></rect><path d="M 0,4 C 42.8,10.2 128.4,35.6 214,35 C 299.6,34.4 342.4,2.6 428,1 C 513.6,-0.6 556.4,24.8 642,27 C 727.6,29.2 770.4,12 856,12 C 941.6,12 984.4,27.4 1070,27 C 1155.6,26.6 1198.4,9.2 1284,10 C 1369.6,10.8 1412.4,32.6 1498,31 C 1583.6,29.4 1627.6,2.8 1712,2 C 1796.4,1.2 1878.4,22 1920,27L1920 50L0 50z" fill="rgba(46, 53, 71, 1)"></path></g><defs><mask id="SvgjsMask1023"><rect width="1920" height="50" fill="#ffffff"></rect></mask></defs></svg>