<?xml version="1.0" encoding="utf-8"?>
<svg version="1.1" xmlns="http://www.w3.org/2000/svg" height="512" width="512" viewBox="0 0 1 1">
    <rect fill="#fff" y="0" width="100%" height="100%"></rect>

    <!-- Red -->
    <!-- Red Part 1 -->
    <rect fill="red" y="0%" x="10%" width="10%" height="10%"></rect>
    <rect fill="red" y="10%" x="20%" width="10%" height="10%"></rect>
    <rect fill="red" y="20%" x="30%" width="10%" height="10%"></rect>
    <rect fill="red" y="30%" x="40%" width="10%" height="10%"></rect>

    <!-- Red Part 2 -->
    <rect fill="lightcoral" y="10%" x="10%" width="10%" height="10%"></rect>
    <rect fill="lightcoral" y="20%" x="20%" width="10%" height="10%"></rect>
    <rect fill="lightcoral" y="30%" x="30%" width="10%" height="10%"></rect>
    <rect fill="lightcoral" y="40%" x="40%" width="10%" height="10%"></rect>

    <!-- Red Part 3 -->
    <rect fill="#ecacac" y="20%" x="10%" width="10%" height="10%"></rect>
    <rect fill="#ecacac" y="30%" x="20%" width="10%" height="10%"></rect>
    <rect fill="#ecacac" y="40%" x="30%" width="10%" height="10%"></rect>
    <rect fill="#ecacac" y="50%" x="40%" width="10%" height="10%"></rect>

    <!-- Blue -->
    <!-- Blue Part 1 -->
    <rect fill="blue" y="0%" x="80%" width="10%" height="10%"></rect>
    <rect fill="blue" y="10%" x="70%" width="10%" height="10%"></rect>
    <rect fill="blue" y="20%" x="60%" width="10%" height="10%"></rect>

    <!-- Blue Part 2 -->
    <rect fill="#6060ff" y="10%" x="80%" width="10%" height="10%"></rect>
    <rect fill="#6060ff" y="20%" x="70%" width="10%" height="10%"></rect>
    <rect fill="#6060ff" y="30%" x="60%" width="10%" height="10%"></rect>

    <!-- Blue Part 2 -->
    <rect fill="#a3a3ff" y="20%" x="80%" width="10%" height="10%"></rect>
    <rect fill="#a3a3ff" y="30%" x="70%" width="10%" height="10%"></rect>
    <rect fill="#a3a3ff" y="40%" x="60%" width="10%" height="10%"></rect>

    <!-- Orange -->
    <!-- Orange Part 1 -->
    <rect fill="orange" y="90%" x="90%" width="10%" height="10%"></rect>
    <rect fill="orange" y="80%" x="80%" width="10%" height="10%"></rect>
    <rect fill="orange" y="70%" x="70%" width="10%" height="10%"></rect>

    <!-- Orange Part 2 -->
    <rect fill="#ffc559" y="80%" x="90%" width="10%" height="10%"></rect>
    <rect fill="#ffc559" y="70%" x="80%" width="10%" height="10%"></rect>
    <rect fill="#ffc559" y="60%" x="70%" width="10%" height="10%"></rect>

    <!-- Orange Part 3 -->
    <rect fill="#ffdb97" y="70%" x="90%" width="10%" height="10%"></rect>
    <rect fill="#ffdb97" y="60%" x="80%" width="10%" height="10%"></rect>
    <rect fill="#ffdb97" y="50%" x="70%" width="10%" height="10%"></rect>

    <!-- Green -->
    <!-- Green Part 1 -->
    <rect fill="green" y="60%" x="30%" width="10%" height="10%"></rect>
    <rect fill="green" y="70%" x="20%" width="10%" height="10%"></rect>
    <rect fill="green" y="80%" x="10%" width="10%" height="10%"></rect>

    <!-- Green Part 2 -->
    <rect fill="#439943" y="70%" x="30%" width="10%" height="10%"></rect>
    <rect fill="#439943" y="80%" x="20%" width="10%" height="10%"></rect>
    <rect fill="#439943" y="90%" x="10%" width="10%" height="10%"></rect>

    <!-- Green Part 3 -->
    <rect fill="#94d194" y="80%" x="30%" width="10%" height="10%"></rect>
    <rect fill="#94d194" y="90%" x="20%" width="10%" height="10%"></rect>
</svg>